PathFileType	4	(X/Y/Z)	Patient4_TMGait_0pt4_03_right_02.trc.trc
DataRate	CameraRate	NumFrames	NumMarkers	Units	OrigDataRate	OrigDataStartFrame	OrigNumFrames
76.086956521739	76.086956521739	4	33	mm	76.086956521739	36	       141
Frame#	Time	Sacral			L.Shoulder			Chest			R.Shoulder			Neck			R.ASIS			L.ASIS			R.Thigh.Superior			R.Thigh.Lateral			R.Thigh.Inferior			R.Patella			L.Thigh.Superior			L.Thigh.Lateral			L.Thigh.Inferior			L.Patella			L.Shank.Superior			L.Shank.Lateral			L.Shank.Inferior			R.Shank.Superior			R.Shank.Lateral			R.Shank.Inferior			R.Heel			R.Midfoot.Superior			R.Midfoot.Lateral			R.Toe			L.Heel			L.Midfoot.Lateral			L.Midfoot.Superior			L.Toe			L.Elbow			L.Wrist			R.Elbow			R.Wrist			
		X1	Y1	Z1	X2	Y2	Z2	X3	Y3	Z3	X4	Y4	Z4	X5	Y5	Z5	X6	Y6	Z6	X7	Y7	Z7	X8	Y8	Z8	X9	Y9	Z9	X10	Y10	Z10	X11	Y11	Z11	X12	Y12	Z12	X13	Y13	Z13	X14	Y14	Z14	X15	Y15	Z15	X16	Y16	Z16	X17	Y17	Z17	X18	Y18	Z18	X19	Y19	Z19	X20	Y20	Z20	X21	Y21	Z21	X22	Y22	Z22	X23	Y23	Z23	X24	Y24	Z24	X25	Y25	Z25	X26	Y26	Z26	X27	Y27	Z27	X28	Y28	Z28	X29	Y29	Z29	X30	Y30	Z30	X31	Y31	Z31	X32	Y32	Z32	X33	Y33	Z33	

36	1.960000000000	806.870801525582	1003.193864236226	492.717043746126	974.551159964241	1433.684393587334	309.115776067083	1071.338301136963	1374.184825942285	477.461496416015	974.131168035184	1444.162327911907	645.602126112150	939.918868453890	1496.818221490944	464.664963408489	1034.160334629983	944.720024648276	619.435831085071	1029.611298493865	967.744424098284	343.393454139057	1089.680704843261	748.054562690872	592.194752080060	1013.864605637395	634.894972713807	651.628548340353	1098.265419938575	586.882743104018	575.034715588740	1104.542119725913	499.426185715541	582.863436650694	1051.258525092998	740.987547365022	360.802405632945	948.020707814417	637.144543864902	291.069474981047	1024.657906763088	545.672374637023	345.055392366444	1015.235018252345	467.795445816024	342.814072872865	961.319916109310	407.077517215418	334.637859704161	835.526563193025	333.469426962253	281.921969503550	851.112625746292	204.459407367339	339.672245037360	1078.871198423303	409.352888853825	591.255641226701	1009.755128745252	304.458507748789	654.545960626037	1056.606546505054	209.610699805321	593.627880438875	930.672976907829	42.787472841386	565.425185182099	1100.891620886046	97.766893989659	600.576479751688	1014.048597679011	37.273316596862	640.309061848315	1221.972201696859	46.934322839082	627.963575362646	684.184938804895	86.277940057707	375.453176655994	754.466019713179	59.753398290265	297.586389230158	849.382196219338	104.062942870782	321.030566635350	960.795621977018	36.164081899849	297.635732070197	1003.766675602971	1090.634169670203	174.294833667793	1240.034199418270	978.265235601235	165.972904043354	911.399686548479	1101.220634891610	763.695433402231	990.750298849286	851.732420093738	763.318531026453	
37	1.973142857143	807.019081677638	1003.442666026446	497.302838986692	972.973621712091	1433.982202016728	312.918394567292	1071.378544742259	1374.625315766897	480.372185089445	975.664577920088	1444.510029920931	649.334558284266	939.822403477299	1497.046092743055	468.767250312916	1035.345084920983	944.842392732742	622.344337124324	1028.777799620575	968.380096240197	346.516860803849	1089.108570944281	747.360001239493	595.687423643712	1011.748457474445	634.671141755893	654.241022934221	1096.122891151683	586.203894441711	577.897766010346	1101.495101779598	498.806445923184	585.005709726103	1055.548877472058	742.956596657882	363.392488623707	956.037877778160	636.778061940021	293.102400423800	1035.677725004603	546.763977306318	346.608641015284	1027.102562196750	467.396503821713	343.290052627949	970.714969109217	407.004981702762	335.467610265773	842.341620850719	337.995255684981	282.903516370125	853.920090112404	208.408670834833	339.764079508905	1075.507360578274	408.826600031990	593.048357118224	1005.962641904256	303.991613797043	655.923570743217	1052.238141027524	209.202890966071	594.438062079378	925.462188884056	42.722810529156	565.564868072140	1095.744473957192	97.630848905471	600.811024364546	1008.843854562709	37.175319951564	640.464369483280	1216.823349853334	46.649544970143	628.111162224829	682.828877156011	97.394569919839	375.170651415950	751.693929353547	67.190890290180	297.479508749518	848.497332898089	107.153964392402	320.581142106701	955.727001939826	35.340117099749	297.707271807955	999.547899165404	1090.203471182833	178.928138064822	1229.869256966221	965.382721828531	169.089442702530	920.253343129568	1100.197701204770	768.671457431184	1010.430064970812	854.461212281590	766.205866042978	
38	1.986285714286	806.979764082448	1003.569580929743	501.843367797869	971.182688671472	1434.142251475698	316.678951987106	1071.374268129445	1374.856873898433	483.102932285575	977.409820115088	1444.674629766665	653.010196876695	939.778825389852	1497.134692064510	472.890011727733	1036.361547540480	944.827252597720	624.976601144215	1027.457933847222	968.761941886437	349.422203359459	1088.223885034579	746.572628062014	598.783026545120	1009.548185122034	634.422798241086	656.737354675370	1093.681626988130	585.499838571723	580.457052230876	1098.176933453050	498.165753032484	586.992245030043	1059.915669938632	745.142058801610	365.812266753964	964.556809272762	636.549621382910	294.914475180526	1047.209528066513	548.232946274721	348.081371819856	1039.609519673011	467.439201571997	343.845146430969	980.891351515289	407.239180730495	336.311535378765	850.114253706954	342.931063404411	283.816028425599	857.460045538546	212.959794290217	339.956364876871	1071.927224782956	408.282479116544	594.729772401633	1002.039104375772	303.480256574824	657.230159112981	1047.766719413826	208.784202583891	595.184252939749	920.196333814655	42.650949110764	565.683509440475	1090.553571084827	97.472987245295	601.015767945745	1003.587364974492	37.062525901353	640.585157551487	1211.626275678399	46.330595550436	628.218687918814	682.325893927695	109.673677395929	375.036126029399	749.576578207300	75.785808568156	297.477887809291	848.211621330696	110.996282691128	320.319101874793	950.913761042741	34.515888841644	297.850069424702	995.243337942342	1089.649581455057	183.544021328188	1218.705813855990	952.266636257474	172.315327693626	929.463269981814	1099.263715354087	773.735332774739	1030.576521575804	857.898170035725	769.042199326912	
39	1.999428571429	806.763348362180	1003.583811544237	506.289595675395	969.220180996968	1434.200585563001	320.359509945689	1071.322989352950	1374.887903606464	485.626635468713	979.333488569400	1444.651100707383	656.589205224406	939.791222527574	1497.109700111388	476.983698289355	1037.181618349213	944.712714258510	627.334352322353	1025.703729294141	968.884501408218	352.088180077311	1087.076022869205	745.765807845327	601.402690995841	1007.394454962796	634.185228855417	659.110020569493	1091.026342108605	584.809245889569	582.668579273885	1094.675345445629	497.527966196380	588.810956547688	1064.242662149595	747.572935424547	368.061895049986	973.375402535731	636.571364796428	296.497708996822	1058.995160853199	550.168028653950	349.440172146779	1052.520821088834	468.033387352537	344.446351007860	991.663196367721	407.866319623378	337.137270408846	858.683002672079	348.245163011476	284.666573536620	861.702398856392	218.071038423937	340.260828986279	1068.205404549808	407.737994724076	596.287529099640	998.050632047928	302.955504972912	658.473937024072	1043.231816937974	208.370663671937	595.867815374320	914.893358265473	42.582909891206	565.797206746855	1085.332589924083	97.307460574328	601.203485591351	998.295816921454	36.946612218747	640.685148549684	1206.395931914373	46.002278689523	628.304757697795	682.770931425358	122.811734364530	375.087045042476	748.265164137547	85.350774477855	297.612895108343	848.607466332736	115.581745539782	320.269538643021	946.587962830281	33.771161474628	298.066932874623	990.785351262979	1088.975016729668	188.160106266066	1206.496539750080	939.128199366175	175.681071770336	939.056774180666	1098.410609826126	778.826312379818	1051.108749454098	862.045133707598	771.766741189956	
